<?xml version="1.0" encoding="utf-8"?>
<!-- Generator: Adobe Illustrator 16.0.3, SVG Export Plug-In . SVG Version: 6.00 Build 0)  -->
<!DOCTYPE svg PUBLIC "-//W3C//DTD SVG 1.1//EN" "http://www.w3.org/Graphics/SVG/1.1/DTD/svg11.dtd">
<svg version="1.1" id="Capa_1" xmlns="http://www.w3.org/2000/svg" xmlns:xlink="http://www.w3.org/1999/xlink" x="0px" y="0px"
	 width="1519px" height="402px" viewBox="0 0 1519 402" enable-background="new 0 0 1519 402" xml:space="preserve">
<g>
	<path fill="#42AB49" d="M1521.88,197.915c0,64.812-0.198,129.623,0.245,194.43c0.057,8.333-1.65,9.964-10.005,9.954
		c-296.411-0.274-592.823-0.229-889.234-0.229c-205.333,0-410.666-0.064-615.999,0.231c-8.354,0.013-10.112-1.614-10.01-9.957
		c0.535-43.739,0.25-87.491,0.25-131.239c21.823,2.012,43.695,3.604,65.46,6.119c51.551,5.955,103.237,10.502,154.64,18.09
		c44.141,6.514,88.761,9.97,133.242,13.972c45.795,4.12,91.529,3.206,137.458-0.604c49.194-4.082,94.823-21.701,142.155-32.758
		c11.859-2.77,23.961-5.402,35.122-10.068c43.906-18.349,90.703-26.199,136.95-32.896c72.06-10.432,144.787-10.078,216.92,3.986
		c24.695,4.815,49.813,7.477,74.695,11.369c44.446,6.951,88.842,14.482,133.734,17.793c35.762,2.638,71.328-0.619,106.409-7.97
		c14.146-2.965,29.284-2.212,42.134-10.437c10.194,0.027,20.211-1.376,29.936-4.331
		C1444.636,221.624,1483.25,209.744,1521.88,197.915z"/>
	<path fill="#C7F1C2" d="M1521.88,197.915c-38.63,11.829-77.244,23.709-115.896,35.455c-9.725,2.955-19.74,4.358-29.936,4.325
		c-52.023-4.902-104.506-4.036-156.062-15.233c-33.286-7.231-67.343-10.979-101.082-16.097
		c-35.27-5.348-70.429-11.984-105.893-15.323c-53.441-5.032-107.188-2.587-160.813-3.157c-35.326-0.375-70.737-0.453-105.946-2.952
		c-54.198-3.848-108.281-8.763-161.52-21.131c-43.84-10.185-88.59-15.805-132.534-26.283
		c-52.03-12.406-105.067-21.043-158.006-29.122c-56.466-8.618-113.451-5.67-170.267-2.516c-10.928,0.607-21.996,1.172-32.675,3.342
		c-31.094,6.313-62.554,8.969-94.125,10.92c0-56.021,0-87.746,0-114.229c31.691,5.271,63.867,5.71,95.708,9.518
		c22.974,2.746,46.365,3.36,68.908,8.071c50.298,10.513,101.87,14.825,151.318,28.79c38.992,11.016,79.017,16.619,118.146,26.44
		c77.307,19.405,155.654,18.999,234.315,13.223c25.506-1.873,51.188-3.188,76.357-7.344c41.063-6.781,82.125-13.448,123.35-19.153
		c19.696-2.728,39.634-4.242,59.086-8.153c49.394-9.935,99.461-12.989,149.547-15.655c57.755-3.071,115.459-1.146,172.218,10.465
		c31.948,6.534,63.919,14.573,94.487,25.721c26.481,9.655,53.542,18.096,79.322,29.649c34.118,15.292,68.005,31.097,101.989,46.683
		C1521.88,168.751,1521.88,183.333,1521.88,197.915z"/>
	<path fill="#66CC67" d="M-2.872,120.143c31.571-1.951,63.031-4.606,94.125-10.92c10.679-2.17,21.747-2.734,32.675-3.342
		c56.816-3.154,113.801-6.103,170.267,2.516c52.939,8.079,105.976,16.716,158.006,29.122
		c43.945,10.479,88.695,16.099,132.534,26.283c53.238,12.368,107.321,17.283,161.52,21.131c35.209,2.499,70.62,2.577,105.946,2.952
		c53.625,0.57,107.37-1.875,160.813,3.157c35.465,3.339,70.623,9.976,105.893,15.323c33.74,5.117,67.796,8.863,101.082,16.097
		c51.556,11.197,104.037,10.331,156.062,15.233c-12.85,8.229-27.985,7.478-42.134,10.441c-35.081,7.352-70.646,10.606-106.409,7.971
		c-44.894-3.312-89.288-10.842-133.733-17.795c-24.885-3.893-50-6.553-74.696-11.367c-72.132-14.065-144.86-14.42-216.92-3.987
		c-46.247,6.696-93.044,14.549-136.95,32.897c-11.161,4.666-23.263,7.299-35.122,10.067
		c-47.333,11.056-92.961,28.677-142.155,32.759c-45.929,3.81-91.662,4.723-137.458,0.604c-44.479-4.002-89.101-7.458-133.242-13.971
		c-51.403-7.588-103.089-12.136-154.64-18.09c-21.765-2.517-43.637-4.108-65.46-6.119C-2.872,214.119-2.872,167.13-2.872,120.143z"
		/>
</g>
</svg>
